<svg width="1362" height="933" xmlns="http://www.w3.org/2000/svg"><g><path d="M-99,-58L-125,458L-43,237Z" fill="#e6603b" stroke="#e6603b"/><path d="M-99,-58L-43,237L-30,46Z" fill="#e82d27" stroke="#e82d27"/><path d="M-99,-58L-30,46L18,-66Z" fill="#e90d18" stroke="#e90d18"/><path d="M-99,-58L18,-66L212,-117Z" fill="#ee1616" stroke="#ee1616"/><path d="M18,-66L-30,46L119,47Z" fill="#ed2a25" stroke="#ed2a25"/><path d="M18,-66L119,47L212,-117Z" fill="#f22724" stroke="#f22724"/><path d="M212,-117L119,47L218,33Z" fill="#f54230" stroke="#f54230"/><path d="M212,-117L218,33L368,-74Z" fill="#fa4732" stroke="#fa4732"/><path d="M212,-117L368,-74L459,-127Z" fill="#fe5832" stroke="#fe5832"/><path d="M368,-74L218,33L366,34Z" fill="#fd633f" stroke="#fd633f"/><path d="M368,-74L366,34L470,11Z" fill="#f7694d" stroke="#f7694d"/><path d="M368,-74L470,11L459,-127Z" fill="#f35d4a" stroke="#f35d4a"/><path d="M459,-127L470,11L577,-31Z" fill="#eb615a" stroke="#eb615a"/><path d="M459,-127L577,-31L719,-98Z" fill="#e16765" stroke="#e16765"/><path d="M459,-127L719,-98L925,-128Z" fill="#d26a73" stroke="#d26a73"/><path d="M577,-31L470,11L639,115Z" fill="#e48274" stroke="#e48274"/><path d="M577,-31L639,115L719,-98Z" fill="#da7a7e" stroke="#da7a7e"/><path d="M719,-98L639,115L769,95Z" fill="#d0888b" stroke="#d0888b"/><path d="M719,-98L769,95L925,-128Z" fill="#be5d76" stroke="#be5d76"/><path d="M925,-128L769,95L966,47Z" fill="#af6378" stroke="#af6378"/><path d="M925,-128L966,47L1015,-128Z" fill="#a04565" stroke="#a04565"/><path d="M1015,-128L966,47L993,61Z" fill="#9b516e" stroke="#9b516e"/><path d="M1015,-128L993,61L1200,15Z" fill="#8d4266" stroke="#8d4266"/><path d="M1015,-128L1200,15L1223,-32Z" fill="#802d5b" stroke="#802d5b"/><path d="M1015,-128L1223,-32L1507,-59Z" fill="#801e4f" stroke="#801e4f"/><path d="M1223,-32L1200,15L1327,119Z" fill="#803c62" stroke="#803c62"/><path d="M1223,-32L1327,119L1383,-16Z" fill="#80305b" stroke="#80305b"/><path d="M1223,-32L1383,-16L1507,-59Z" fill="#80124d" stroke="#80124d"/><path d="M1383,-16L1327,119L1457,44Z" fill="#802f5a" stroke="#802f5a"/><path d="M1383,-16L1457,44L1507,-59Z" fill="#80104b" stroke="#80104b"/><path d="M1507,-59L1457,44L1483,174Z" fill="#802553" stroke="#802553"/><path d="M1507,-59L1483,174L1507,878Z" fill="#75728e" stroke="#75728e"/><path d="M1507,-59L1507,878L1513,1079Z" fill="#3059a9" stroke="#3059a9"/><path d="M-30,46L-43,237L58,223Z" fill="#eb5b3c" stroke="#eb5b3c"/><path d="M-30,46L58,223L119,47Z" fill="#ee5037" stroke="#ee5037"/><path d="M119,47L58,223L208,240Z" fill="#f2794a" stroke="#f2794a"/><path d="M119,47L208,240L218,33Z" fill="#f56d45" stroke="#f56d45"/><path d="M218,33L208,240L321,249Z" fill="#f99557" stroke="#f99557"/><path d="M218,33L321,249L366,34Z" fill="#fc8750" stroke="#fc8750"/><path d="M366,34L321,249L471,240Z" fill="#f9ac69" stroke="#f9ac69"/><path d="M366,34L471,240L470,11Z" fill="#f39266" stroke="#f39266"/><path d="M470,11L471,240L639,115Z" fill="#e8a27c" stroke="#e8a27c"/><path d="M639,115L471,240L648,225Z" fill="#e1c094" stroke="#e1c094"/><path d="M639,115L648,225L713,179Z" fill="#d7bda1" stroke="#d7bda1"/><path d="M639,115L713,179L769,95Z" fill="#d0ab9a" stroke="#d0ab9a"/><path d="M769,95L713,179L949,164Z" fill="#bda296" stroke="#bda296"/><path d="M769,95L949,164L966,47Z" fill="#ad8688" stroke="#ad8688"/><path d="M966,47L949,164L993,61Z" fill="#9f7880" stroke="#9f7880"/><path d="M993,61L949,164L1078,175Z" fill="#998285" stroke="#998285"/><path d="M993,61L1078,175L1200,15Z" fill="#896576" stroke="#896576"/><path d="M1200,15L1078,175L1273,152Z" fill="#806374" stroke="#806374"/><path d="M1200,15L1273,152L1327,119Z" fill="#80506b" stroke="#80506b"/><path d="M1327,119L1273,152L1468,315Z" fill="#806975" stroke="#806975"/><path d="M1327,119L1468,315L1483,174Z" fill="#806271" stroke="#806271"/><path d="M1327,119L1483,174L1457,44Z" fill="#804162" stroke="#804162"/><path d="M-43,237L-125,458L-23,312Z" fill="#dd7260" stroke="#dd7260"/><path d="M-43,237L-23,312L58,223Z" fill="#e9764e" stroke="#e9764e"/><path d="M58,223L-23,312L129,406Z" fill="#e58965" stroke="#e58965"/><path d="M58,223L129,406L208,240Z" fill="#ed9766" stroke="#ed9766"/><path d="M208,240L129,406L179,407Z" fill="#e8a67d" stroke="#e8a67d"/><path d="M208,240L179,407L354,323Z" fill="#efb47c" stroke="#efb47c"/><path d="M208,240L354,323L321,249Z" fill="#f8b971" stroke="#f8b971"/><path d="M321,249L354,323L471,240Z" fill="#f5c57e" stroke="#f5c57e"/><path d="M471,240L354,323L491,335Z" fill="#ebcc92" stroke="#ebcc92"/><path d="M471,240L491,335L648,225Z" fill="#e3cf9b" stroke="#e3cf9b"/><path d="M648,225L491,335L638,362Z" fill="#d8d6b3" stroke="#d8d6b3"/><path d="M648,225L638,362L756,310Z" fill="#cedbc2" stroke="#cedbc2"/><path d="M648,225L756,310L713,179Z" fill="#d0d1ae" stroke="#d0d1ae"/><path d="M713,179L756,310L949,164Z" fill="#bebda2" stroke="#bebda2"/><path d="M949,164L756,310L909,386Z" fill="#acbfb0" stroke="#acbfb0"/><path d="M949,164L909,386L994,384Z" fill="#9ab7b2" stroke="#9ab7b2"/><path d="M949,164L994,384L1078,175Z" fill="#97a898" stroke="#97a898"/><path d="M1078,175L994,384L1175,265Z" fill="#86a19d" stroke="#86a19d"/><path d="M1078,175L1175,265L1273,152Z" fill="#808383" stroke="#808383"/><path d="M1175,265L994,384L1209,381Z" fill="#76a2ae" stroke="#76a2ae"/><path d="M1175,265L1209,381L1283,391Z" fill="#7395a7" stroke="#7395a7"/><path d="M1175,265L1283,391L1273,152Z" fill="#7c8a8f" stroke="#7c8a8f"/><path d="M1273,152L1283,391L1468,315Z" fill="#7a7f8d" stroke="#7a7f8d"/><path d="M1483,174L1468,315L1507,878Z" fill="#677fb4" stroke="#677fb4"/><path d="M-23,312L-125,458L67,453Z" fill="#d7807a" stroke="#d7807a"/><path d="M-23,312L67,453L129,406Z" fill="#dd917d" stroke="#dd917d"/><path d="M129,406L67,453L220,432Z" fill="#dda791" stroke="#dda791"/><path d="M129,406L220,432L179,407Z" fill="#e1ad90" stroke="#e1ad90"/><path d="M179,407L220,432L354,323Z" fill="#e8bb8f" stroke="#e8bb8f"/><path d="M354,323L220,432L396,493Z" fill="#e9cea0" stroke="#e9cea0"/><path d="M354,323L396,493L491,335Z" fill="#e5d3a6" stroke="#e5d3a6"/><path d="M491,335L396,493L517,500Z" fill="#d8dcc3" stroke="#d8dcc3"/><path d="M491,335L517,500L638,362Z" fill="#d3ddc5" stroke="#d3ddc5"/><path d="M638,362L517,500L628,485Z" fill="#c8e5dd" stroke="#c8e5dd"/><path d="M638,362L628,485L729,439Z" fill="#c2e7e6" stroke="#c2e7e6"/><path d="M638,362L729,439L756,310Z" fill="#c1dfd5" stroke="#c1dfd5"/><path d="M756,310L729,439L909,386Z" fill="#afd3d1" stroke="#afd3d1"/><path d="M909,386L729,439L927,517Z" fill="#9dd2e1" stroke="#9dd2e1"/><path d="M909,386L927,517L994,384Z" fill="#8fc4d5" stroke="#8fc4d5"/><path d="M994,384L927,517L1098,529Z" fill="#7cbddb" stroke="#7cbddb"/><path d="M994,384L1098,529L1209,381Z" fill="#72afca" stroke="#72afca"/><path d="M1209,381L1098,529L1230,503Z" fill="#65a7ce" stroke="#65a7ce"/><path d="M1209,381L1230,503L1283,391Z" fill="#6b9abe" stroke="#6b9abe"/><path d="M1283,391L1230,503L1278,528Z" fill="#649ac8" stroke="#649ac8"/><path d="M1283,391L1278,528L1425,467Z" fill="#6792c2" stroke="#6792c2"/><path d="M1283,391L1425,467L1468,315Z" fill="#6f82a9" stroke="#6f82a9"/><path d="M1468,315L1425,467L1456,599Z" fill="#6782b9" stroke="#6782b9"/><path d="M1468,315L1456,599L1507,878Z" fill="#3c61ae" stroke="#3c61ae"/><path d="M-125,458L-109,920L-57,729Z" fill="#7f4971" stroke="#7f4971"/><path d="M-125,458L-57,729L-32,681Z" fill="#9b5c7a" stroke="#9b5c7a"/><path d="M-125,458L-32,681L71,611Z" fill="#aa6b81" stroke="#aa6b81"/><path d="M-125,458L71,611L67,453Z" fill="#c4848b" stroke="#c4848b"/><path d="M67,453L71,611L220,432Z" fill="#ce9f97" stroke="#ce9f97"/><path d="M220,432L71,611L223,669Z" fill="#b99a97" stroke="#b99a97"/><path d="M220,432L223,669L396,493Z" fill="#ccbaa5" stroke="#ccbaa5"/><path d="M396,493L223,669L359,668Z" fill="#b5b3a3" stroke="#b5b3a3"/><path d="M396,493L359,668L532,589Z" fill="#b4c1b8" stroke="#b4c1b8"/><path d="M396,493L532,589L517,500Z" fill="#c0d2c7" stroke="#c0d2c7"/><path d="M517,500L532,589L628,485Z" fill="#b7d7d7" stroke="#b7d7d7"/><path d="M628,485L532,589L633,657Z" fill="#a2cddb" stroke="#a2cddb"/><path d="M628,485L633,657L739,643Z" fill="#93cee7" stroke="#93cee7"/><path d="M628,485L739,643L729,439Z" fill="#a6ddee" stroke="#a6ddee"/><path d="M729,439L739,643L927,517Z" fill="#90cde6" stroke="#90cde6"/><path d="M927,517L739,643L938,663Z" fill="#6bb2db" stroke="#6bb2db"/><path d="M927,517L938,663L1098,529Z" fill="#61aad5" stroke="#61aad5"/><path d="M1098,529L938,663L1103,679Z" fill="#4595cc" stroke="#4595cc"/><path d="M1098,529L1103,679L1139,591Z" fill="#4092c9" stroke="#4092c9"/><path d="M1098,529L1139,591L1230,503Z" fill="#4e9acb" stroke="#4e9acb"/><path d="M1230,503L1139,591L1278,528Z" fill="#4e91c6" stroke="#4e91c6"/><path d="M1278,528L1139,591L1296,652Z" fill="#3e83c1" stroke="#3e83c1"/><path d="M1278,528L1296,652L1456,599Z" fill="#3d73b8" stroke="#3d73b8"/><path d="M1278,528L1456,599L1425,467Z" fill="#517cba" stroke="#517cba"/><path d="M-32,681L-57,729L40,749Z" fill="#7e4e78" stroke="#7e4e78"/><path d="M-32,681L40,749L71,611Z" fill="#8e617f" stroke="#8e617f"/><path d="M71,611L40,749L159,789Z" fill="#856682" stroke="#856682"/><path d="M71,611L159,789L223,669Z" fill="#927a8b" stroke="#927a8b"/><path d="M223,669L159,789L388,803Z" fill="#838290" stroke="#838290"/><path d="M223,669L388,803L359,668Z" fill="#939a9b" stroke="#939a9b"/><path d="M359,668L388,803L479,768Z" fill="#829aa7" stroke="#829aa7"/><path d="M359,668L479,768L532,589Z" fill="#93aeb6" stroke="#93aeb6"/><path d="M532,589L479,768L633,657Z" fill="#89b4c9" stroke="#89b4c9"/><path d="M633,657L479,768L675,830Z" fill="#69a5cc" stroke="#69a5cc"/><path d="M633,657L675,830L739,643Z" fill="#6cb4e0" stroke="#6cb4e0"/><path d="M739,643L675,830L790,769Z" fill="#56a4d9" stroke="#56a4d9"/><path d="M739,643L790,769L938,663Z" fill="#58a5d7" stroke="#58a5d7"/><path d="M938,663L790,769L900,768Z" fill="#4093d0" stroke="#4093d0"/><path d="M938,663L900,768L1030,818Z" fill="#2c85c9" stroke="#2c85c9"/><path d="M938,663L1030,818L1103,679Z" fill="#2982c6" stroke="#2982c6"/><path d="M1103,679L1030,818L1236,809Z" fill="#0769bb" stroke="#0769bb"/><path d="M1103,679L1236,809L1296,652Z" fill="#166ab9" stroke="#166ab9"/><path d="M1103,679L1296,652L1139,591Z" fill="#2e7fc1" stroke="#2e7fc1"/><path d="M1296,652L1236,809L1368,814Z" fill="#0753ae" stroke="#0753ae"/><path d="M1296,652L1368,814L1414,759Z" fill="#0d4fab" stroke="#0d4fab"/><path d="M1296,652L1414,759L1456,599Z" fill="#245caf" stroke="#245caf"/><path d="M1456,599L1414,759L1507,878Z" fill="#0b40a3" stroke="#0b40a3"/><path d="M-57,729L-109,920L40,749Z" fill="#69366e" stroke="#69366e"/><path d="M40,749L-109,920L89,865Z" fill="#6c366f" stroke="#6c366f"/><path d="M40,749L89,865L159,789Z" fill="#71547c" stroke="#71547c"/><path d="M159,789L89,865L167,945Z" fill="#734e7b" stroke="#734e7b"/><path d="M159,789L167,945L310,957Z" fill="#785780" stroke="#785780"/><path d="M159,789L310,957L388,803Z" fill="#7c728c" stroke="#7c728c"/><path d="M388,803L310,957L495,932Z" fill="#787799" stroke="#787799"/><path d="M388,803L495,932L479,768Z" fill="#7189a9" stroke="#7189a9"/><path d="M479,768L495,932L581,900Z" fill="#6985b3" stroke="#6985b3"/><path d="M479,768L581,900L675,830Z" fill="#6291c2" stroke="#6291c2"/><path d="M675,830L581,900L729,939Z" fill="#5889ce" stroke="#5889ce"/><path d="M675,830L729,939L790,769Z" fill="#4c8dd1" stroke="#4c8dd1"/><path d="M790,769L729,939L904,850Z" fill="#3e81cb" stroke="#3e81cb"/><path d="M790,769L904,850L900,768Z" fill="#3387cb" stroke="#3387cb"/><path d="M900,768L904,850L1030,818Z" fill="#2578c5" stroke="#2578c5"/><path d="M1030,818L904,850L1011,865Z" fill="#1e6bbf" stroke="#1e6bbf"/><path d="M1030,818L1011,865L1157,942Z" fill="#0e59b6" stroke="#0e59b6"/><path d="M1030,818L1157,942L1236,809Z" fill="#0052b2" stroke="#0052b2"/><path d="M1236,809L1157,942L1291,922Z" fill="#003ea9" stroke="#003ea9"/><path d="M1236,809L1291,922L1368,814Z" fill="#003fa7" stroke="#003fa7"/><path d="M1368,814L1291,922L1344,1012Z" fill="#002a9f" stroke="#002a9f"/><path d="M1368,814L1344,1012L1507,878Z" fill="#00249a" stroke="#00249a"/><path d="M1368,814L1507,878L1414,759Z" fill="#0034a0" stroke="#0034a0"/><path d="M-109,920L-60,1003L89,865Z" fill="#6a1b66" stroke="#6a1b66"/><path d="M89,865L-60,1003L107,1023Z" fill="#6e236a" stroke="#6e236a"/><path d="M89,865L107,1023L167,945Z" fill="#733873" stroke="#733873"/><path d="M167,945L107,1023L161,1008Z" fill="#743271" stroke="#743271"/><path d="M167,945L161,1008L310,957Z" fill="#78467a" stroke="#78467a"/><path d="M310,957L161,1008L395,1086Z" fill="#7c4c7e" stroke="#7c4c7e"/><path d="M310,957L395,1086L495,932Z" fill="#786191" stroke="#786191"/><path d="M495,932L395,1086L534,1004Z" fill="#6f629f" stroke="#6f629f"/><path d="M495,932L534,1004L581,900Z" fill="#6774b0" stroke="#6774b0"/><path d="M581,900L534,1004L612,1088Z" fill="#626bb4" stroke="#626bb4"/><path d="M581,900L612,1088L729,939Z" fill="#5b74c3" stroke="#5b74c3"/><path d="M729,939L612,1088L737,1102Z" fill="#546bc4" stroke="#546bc4"/><path d="M729,939L737,1102L871,1007Z" fill="#4360c0" stroke="#4360c0"/><path d="M729,939L871,1007L904,850Z" fill="#396bc3" stroke="#396bc3"/><path d="M904,850L871,1007L1011,865Z" fill="#2864be" stroke="#2864be"/><path d="M1011,865L871,1007L1086,1066Z" fill="#1c4bb3" stroke="#1c4bb3"/><path d="M1011,865L1086,1066L1157,942Z" fill="#0a43ae" stroke="#0a43ae"/><path d="M1157,942L1086,1066L1179,1090Z" fill="#002da4" stroke="#002da4"/><path d="M1157,942L1179,1090L1291,922Z" fill="#002ba3" stroke="#002ba3"/><path d="M1291,922L1179,1090L1344,1012Z" fill="#001d9c" stroke="#001d9c"/><path d="M1507,878L1344,1012L1513,1079Z" fill="#000890" stroke="#000890"/><path d="M-60,1003L395,1086L107,1023Z" fill="#742d6e" stroke="#742d6e"/><path d="M107,1023L395,1086L161,1008Z" fill="#783d76" stroke="#783d76"/><path d="M395,1086L737,1102L612,1088Z" fill="#6266ad" stroke="#6266ad"/><path d="M395,1086L612,1088L534,1004Z" fill="#6a62a2" stroke="#6a62a2"/><path d="M737,1102L1179,1090L1086,1066Z" fill="#1a41aa" stroke="#1a41aa"/><path d="M737,1102L1086,1066L871,1007Z" fill="#2d4fb4" stroke="#2d4fb4"/><path d="M1179,1090L1513,1079L1344,1012Z" fill="#001192" stroke="#001192"/></g><filter id="noise"><feTurbulence type="fractalNoise" in="fillPaint" fill="#F00" baseFrequency="0.7" numOctaves="10" stitchTiles="stitch"/><feComponentTransfer><feFuncR type="linear" slope="2" intercept="-.5"/><feFuncG type="linear" slope="2" intercept="-.5"/><feFuncB type="linear" slope="2" intercept="-.5"/></feComponentTransfer><feColorMatrix type="matrix" values="0.3333 0.3333 0.3333 0 0 
 0.3333 0.3333 0.3333 0 0 
 0.3333 0.3333 0.3333 0 0 
 0 0 0 1 0"/></filter><rect opacity="0.20000000000000007" width="100%" height="100%" filter="url(#noise)"/></svg>