<?xml version="1.0" encoding="utf-8"?>
<!-- Generator: Adobe Illustrator 16.0.0, SVG Export Plug-In . SVG Version: 6.00 Build 0)  -->
<!DOCTYPE svg PUBLIC "-//W3C//DTD SVG 1.1//EN" "http://www.w3.org/Graphics/SVG/1.1/DTD/svg11.dtd">
<svg version="1.1" id="Layer_1" xmlns="http://www.w3.org/2000/svg" xmlns:xlink="http://www.w3.org/1999/xlink" x="0px" y="0px"
	 width="803.959px" height="187.491px" viewBox="0 0 803.959 187.491" enable-background="new 0 0 803.959 187.491"
	 xml:space="preserve">
<g>
	<g>
		<path fill="#544F47" d="M97.975,141.353H62.672V81.301l39.489-35.849h66.057v95.901h-35.303V77.479H97.975V141.353z"/>
	</g>
	<g>
		<path fill="#544F47" d="M281.769,109.325v32.028h-81.161l-24.385-22.201V81.301l39.489-35.849h66.057v41.49l-24.021,22.383
			H281.769z M246.466,77.479h-34.939v31.846h34.939V77.479z"/>
	</g>
	<g>
		<path fill="#544F47" d="M397.142,45.452v95.901h-35.303V96.951l-14.012,12.738h-20.927v31.664h-35.303V45.452h35.303v32.028
			h34.939V45.452H397.142z"/>
	</g>
	<g>
		<path fill="#544F47" d="M442.27,45.452v22.383l24.566-22.383h39.125v22.383l24.567-22.383h39.125v95.901H534.35V77.479h-28.389
			v63.874h-35.303V77.479H442.27v63.874h-35.303V45.452H442.27z"/>
	</g>
	<g>
		<path fill="#544F47" d="M614.784,79.845l20.018-18.38h50.226v43.856l-39.308,36.031H579.48V45.452h35.304V79.845z M614.784,85.486
			v23.839h31.846V85.486H614.784z M724.333,141.353H689.03V45.452h35.304V141.353z"/>
	</g>
</g>
</svg>
