<?xml version="1.0" encoding="utf-8"?>
<!-- Generator: Adobe Illustrator 16.0.0, SVG Export Plug-In . SVG Version: 6.00 Build 0)  -->
<!DOCTYPE svg PUBLIC "-//W3C//DTD SVG 1.1//EN" "http://www.w3.org/Graphics/SVG/1.1/DTD/svg11.dtd">
<svg version="1.1" id="Layer_1" xmlns="http://www.w3.org/2000/svg" xmlns:xlink="http://www.w3.org/1999/xlink" x="0px" y="0px"
	 width="803.959px" height="187.492px" viewBox="0 0 803.959 187.492" enable-background="new 0 0 803.959 187.492"
	 xml:space="preserve">
<g>
	<g>
		<g>
			<g>
				<defs>
					<path id="SVGID_1_" d="M97.975,141.353H62.672V81.301l39.489-35.849h66.057v95.901h-35.303V77.479h-34.94V141.353z"/>
				</defs>
				<clipPath id="SVGID_2_">
					<use xlink:href="#SVGID_1_"  overflow="visible"/>
				</clipPath>
				<rect x="62.671" y="140.816" clip-path="url(#SVGID_2_)" fill="#D6B9A0" width="105.547" height="0.539"/>
				<rect x="62.671" y="134.601" clip-path="url(#SVGID_2_)" fill="#D6B9A0" width="105.547" height="6.215"/>
				<rect x="62.671" y="128.386" clip-path="url(#SVGID_2_)" fill="#E6CDB5" width="105.547" height="6.215"/>
				<rect x="62.671" y="122.171" clip-path="url(#SVGID_2_)" fill="#F6E1C9" width="105.547" height="6.215"/>
				<rect x="62.671" y="114.738" clip-path="url(#SVGID_2_)" fill="#F6E1C9" width="105.547" height="7.438"/>
				<rect x="62.671" y="107.304" clip-path="url(#SVGID_2_)" fill="#E8D5BF" width="105.547" height="7.434"/>
				<rect x="62.671" y="99.871" clip-path="url(#SVGID_2_)" fill="#D3C2AF" width="105.547" height="7.434"/>
				<rect x="62.671" y="90.886" clip-path="url(#SVGID_2_)" fill="#D3C2AF" width="105.547" height="8.98"/>
				<rect x="62.671" y="81.91" clip-path="url(#SVGID_2_)" fill="#E7D4BE" width="105.547" height="8.977"/>
				<rect x="62.671" y="72.929" clip-path="url(#SVGID_2_)" fill="#F6E1C9" width="105.547" height="8.98"/>
				<rect x="62.671" y="64.039" clip-path="url(#SVGID_2_)" fill="#F6E1C9" width="105.547" height="8.891"/>
				<rect x="62.671" y="55.152" clip-path="url(#SVGID_2_)" fill="#DDD2C5" width="105.547" height="8.887"/>
				<rect x="62.671" y="50.3" clip-path="url(#SVGID_2_)" fill="#DDD2C5" width="105.547" height="4.852"/>
				<rect x="62.671" y="45.453" clip-path="url(#SVGID_2_)" fill="#F5EEE2" width="105.547" height="4.848"/>
				<path clip-path="url(#SVGID_2_)" fill="#F5EEE2" d="M168.218,45.453H62.671H168.218z"/>
			</g>
		</g>
	</g>
	<g>
		<g>
			<g>
				<defs>
					<path id="SVGID_3_" d="M281.769,109.326v32.027h-81.161l-24.385-22.201V81.301l39.489-35.849h66.057v41.49l-24.021,22.384
						H281.769z M246.466,77.479h-34.939v31.847h34.939V77.479z"/>
				</defs>
				<clipPath id="SVGID_4_">
					<use xlink:href="#SVGID_3_"  overflow="visible"/>
				</clipPath>
				<rect x="211.527" y="107.304" clip-path="url(#SVGID_4_)" fill="#E8D5BF" width="34.938" height="2.02"/>
				<rect x="211.527" y="99.871" clip-path="url(#SVGID_4_)" fill="#D3C2AF" width="34.938" height="7.434"/>
				<rect x="211.527" y="90.886" clip-path="url(#SVGID_4_)" fill="#D3C2AF" width="34.938" height="8.98"/>
				<rect x="211.527" y="81.91" clip-path="url(#SVGID_4_)" fill="#E7D4BE" width="34.938" height="8.977"/>
				<rect x="211.527" y="77.48" clip-path="url(#SVGID_4_)" fill="#F6E1C9" width="34.938" height="4.43"/>
				<rect x="176.222" y="140.816" clip-path="url(#SVGID_4_)" fill="#D6B9A0" width="105.547" height="0.539"/>
				<rect x="176.222" y="134.601" clip-path="url(#SVGID_4_)" fill="#D6B9A0" width="105.547" height="6.215"/>
				<rect x="176.222" y="128.386" clip-path="url(#SVGID_4_)" fill="#E6CDB5" width="105.547" height="6.215"/>
				<rect x="176.222" y="122.171" clip-path="url(#SVGID_4_)" fill="#F6E1C9" width="105.547" height="6.215"/>
				<rect x="176.222" y="114.738" clip-path="url(#SVGID_4_)" fill="#F6E1C9" width="105.547" height="7.438"/>
				<rect x="176.222" y="107.304" clip-path="url(#SVGID_4_)" fill="#E8D5BF" width="105.547" height="7.434"/>
				<rect x="176.222" y="99.871" clip-path="url(#SVGID_4_)" fill="#D3C2AF" width="105.547" height="7.434"/>
				<rect x="176.222" y="90.886" clip-path="url(#SVGID_4_)" fill="#D3C2AF" width="105.547" height="8.98"/>
				<rect x="176.222" y="81.91" clip-path="url(#SVGID_4_)" fill="#E7D4BE" width="105.547" height="8.977"/>
				<rect x="176.222" y="72.929" clip-path="url(#SVGID_4_)" fill="#F6E1C9" width="105.547" height="8.98"/>
				<rect x="176.222" y="64.039" clip-path="url(#SVGID_4_)" fill="#F6E1C9" width="105.547" height="8.891"/>
				<rect x="176.222" y="55.152" clip-path="url(#SVGID_4_)" fill="#DDD2C5" width="105.547" height="8.887"/>
				<rect x="176.222" y="50.3" clip-path="url(#SVGID_4_)" fill="#DDD2C5" width="105.547" height="4.852"/>
				<rect x="176.222" y="45.453" clip-path="url(#SVGID_4_)" fill="#F5EEE2" width="105.547" height="4.848"/>
				<path clip-path="url(#SVGID_4_)" fill="#F5EEE2" d="M281.769,45.453H176.222H281.769z"/>
			</g>
		</g>
	</g>
	<g>
		<g>
			<g>
				<defs>
					<path id="SVGID_5_" d="M397.142,45.452v95.901h-35.303V96.951l-14.013,12.738H326.9v31.664h-35.303V45.452H326.9V77.48h34.939
						V45.452H397.142z"/>
				</defs>
				<clipPath id="SVGID_6_">
					<use xlink:href="#SVGID_5_"  overflow="visible"/>
				</clipPath>
				<rect x="291.597" y="140.816" clip-path="url(#SVGID_6_)" fill="#D6B9A0" width="105.547" height="0.539"/>
				<rect x="291.597" y="134.601" clip-path="url(#SVGID_6_)" fill="#D6B9A0" width="105.547" height="6.215"/>
				<rect x="291.597" y="128.386" clip-path="url(#SVGID_6_)" fill="#E6CDB5" width="105.547" height="6.215"/>
				<rect x="291.597" y="122.171" clip-path="url(#SVGID_6_)" fill="#F6E1C9" width="105.547" height="6.215"/>
				<rect x="291.597" y="114.738" clip-path="url(#SVGID_6_)" fill="#F6E1C9" width="105.547" height="7.438"/>
				<rect x="291.597" y="107.304" clip-path="url(#SVGID_6_)" fill="#E8D5BF" width="105.547" height="7.434"/>
				<rect x="291.597" y="99.871" clip-path="url(#SVGID_6_)" fill="#D3C2AF" width="105.547" height="7.434"/>
				<rect x="291.597" y="90.886" clip-path="url(#SVGID_6_)" fill="#D3C2AF" width="105.547" height="8.98"/>
				<rect x="291.597" y="81.91" clip-path="url(#SVGID_6_)" fill="#E7D4BE" width="105.547" height="8.977"/>
				<rect x="291.597" y="72.929" clip-path="url(#SVGID_6_)" fill="#F6E1C9" width="105.547" height="8.98"/>
				<rect x="291.597" y="64.039" clip-path="url(#SVGID_6_)" fill="#F6E1C9" width="105.547" height="8.891"/>
				<rect x="291.597" y="55.152" clip-path="url(#SVGID_6_)" fill="#DDD2C5" width="105.547" height="8.887"/>
				<rect x="291.597" y="50.3" clip-path="url(#SVGID_6_)" fill="#DDD2C5" width="105.547" height="4.852"/>
				<rect x="291.597" y="45.453" clip-path="url(#SVGID_6_)" fill="#F5EEE2" width="105.547" height="4.848"/>
				<path clip-path="url(#SVGID_6_)" fill="#F5EEE2" d="M397.144,45.453H291.597H397.144z"/>
			</g>
		</g>
	</g>
	<g>
		<g>
			<g>
				<defs>
					<path id="SVGID_7_" d="M442.27,45.452v22.383l24.566-22.383h39.125v22.383l24.566-22.383h39.125v95.901H534.35V77.479h-28.389
						v63.874h-35.304V77.479H442.27v63.874h-35.303V45.452H442.27z"/>
				</defs>
				<clipPath id="SVGID_8_">
					<use xlink:href="#SVGID_7_"  overflow="visible"/>
				</clipPath>
				<rect x="406.968" y="140.816" clip-path="url(#SVGID_8_)" fill="#D6B9A0" width="162.684" height="0.539"/>
				<rect x="406.968" y="134.601" clip-path="url(#SVGID_8_)" fill="#D6B9A0" width="162.684" height="6.215"/>
				<rect x="406.968" y="128.386" clip-path="url(#SVGID_8_)" fill="#E6CDB5" width="162.684" height="6.215"/>
				<rect x="406.968" y="122.171" clip-path="url(#SVGID_8_)" fill="#F6E1C9" width="162.684" height="6.215"/>
				<rect x="406.968" y="114.738" clip-path="url(#SVGID_8_)" fill="#F6E1C9" width="162.684" height="7.438"/>
				<rect x="406.968" y="107.304" clip-path="url(#SVGID_8_)" fill="#E8D5BF" width="162.684" height="7.434"/>
				<rect x="406.968" y="99.871" clip-path="url(#SVGID_8_)" fill="#D3C2AF" width="162.684" height="7.434"/>
				<rect x="406.968" y="90.886" clip-path="url(#SVGID_8_)" fill="#D3C2AF" width="162.684" height="8.98"/>
				<rect x="406.968" y="81.91" clip-path="url(#SVGID_8_)" fill="#E7D4BE" width="162.684" height="8.977"/>
				<rect x="406.968" y="72.929" clip-path="url(#SVGID_8_)" fill="#F6E1C9" width="162.684" height="8.98"/>
				<rect x="406.968" y="64.039" clip-path="url(#SVGID_8_)" fill="#F6E1C9" width="162.684" height="8.891"/>
				<rect x="406.968" y="55.152" clip-path="url(#SVGID_8_)" fill="#DDD2C5" width="162.684" height="8.887"/>
				<rect x="406.968" y="50.3" clip-path="url(#SVGID_8_)" fill="#DDD2C5" width="162.684" height="4.852"/>
				<rect x="406.968" y="45.453" clip-path="url(#SVGID_8_)" fill="#F5EEE2" width="162.684" height="4.848"/>
				<path clip-path="url(#SVGID_8_)" fill="#F5EEE2" d="M569.652,45.453H406.968H569.652z"/>
			</g>
		</g>
	</g>
	<g>
		<g>
			<g>
				<defs>
					<path id="SVGID_9_" d="M614.783,79.845l20.019-18.38h50.226v43.856l-39.308,36.031h-66.24v-95.9h35.304V79.845z
						 M614.783,85.486v23.84h31.847v-23.84H614.783z M724.332,141.353H689.03V45.452h35.305v95.901H724.332z"/>
				</defs>
				<clipPath id="SVGID_10_">
					<use xlink:href="#SVGID_9_"  overflow="visible"/>
				</clipPath>
				<rect x="689.031" y="140.816" clip-path="url(#SVGID_10_)" fill="#D6B9A0" width="35.305" height="0.539"/>
				<rect x="689.031" y="134.601" clip-path="url(#SVGID_10_)" fill="#D6B9A0" width="35.305" height="6.215"/>
				<rect x="689.031" y="128.386" clip-path="url(#SVGID_10_)" fill="#E6CDB5" width="35.305" height="6.215"/>
				<rect x="689.031" y="122.171" clip-path="url(#SVGID_10_)" fill="#F6E1C9" width="35.305" height="6.215"/>
				<rect x="689.031" y="114.738" clip-path="url(#SVGID_10_)" fill="#F6E1C9" width="35.305" height="7.438"/>
				<rect x="689.031" y="107.304" clip-path="url(#SVGID_10_)" fill="#E8D5BF" width="35.305" height="7.434"/>
				<rect x="689.031" y="99.871" clip-path="url(#SVGID_10_)" fill="#D3C2AF" width="35.305" height="7.434"/>
				<rect x="689.031" y="90.886" clip-path="url(#SVGID_10_)" fill="#D3C2AF" width="35.305" height="8.98"/>
				<rect x="689.031" y="81.91" clip-path="url(#SVGID_10_)" fill="#E7D4BE" width="35.305" height="8.977"/>
				<rect x="689.031" y="72.929" clip-path="url(#SVGID_10_)" fill="#F6E1C9" width="35.305" height="8.98"/>
				<rect x="689.031" y="64.039" clip-path="url(#SVGID_10_)" fill="#F6E1C9" width="35.305" height="8.891"/>
				<rect x="689.031" y="55.152" clip-path="url(#SVGID_10_)" fill="#DDD2C5" width="35.305" height="8.887"/>
				<rect x="689.031" y="50.3" clip-path="url(#SVGID_10_)" fill="#DDD2C5" width="35.305" height="4.852"/>
				<rect x="689.031" y="45.453" clip-path="url(#SVGID_10_)" fill="#F5EEE2" width="35.305" height="4.848"/>
				<path clip-path="url(#SVGID_10_)" fill="#F5EEE2" d="M724.335,45.453h-35.305H724.335z"/>
				<rect x="614.784" y="107.304" clip-path="url(#SVGID_10_)" fill="#E8D5BF" width="31.844" height="2.02"/>
				<rect x="614.784" y="99.871" clip-path="url(#SVGID_10_)" fill="#D3C2AF" width="31.844" height="7.434"/>
				<rect x="614.784" y="90.886" clip-path="url(#SVGID_10_)" fill="#D3C2AF" width="31.844" height="8.98"/>
				<rect x="614.784" y="85.488" clip-path="url(#SVGID_10_)" fill="#E7D4BE" width="31.844" height="5.398"/>
				<rect x="579.48" y="140.816" clip-path="url(#SVGID_10_)" fill="#D6B9A0" width="105.547" height="0.535"/>
				<rect x="579.48" y="134.601" clip-path="url(#SVGID_10_)" fill="#D6B9A0" width="105.547" height="6.215"/>
				<rect x="579.48" y="128.386" clip-path="url(#SVGID_10_)" fill="#E6CDB5" width="105.547" height="6.215"/>
				<rect x="579.48" y="122.171" clip-path="url(#SVGID_10_)" fill="#F6E1C9" width="105.547" height="6.215"/>
				<rect x="579.48" y="114.738" clip-path="url(#SVGID_10_)" fill="#F6E1C9" width="105.547" height="7.438"/>
				<rect x="579.48" y="107.304" clip-path="url(#SVGID_10_)" fill="#E8D5BF" width="105.547" height="7.434"/>
				<rect x="579.48" y="99.871" clip-path="url(#SVGID_10_)" fill="#D3C2AF" width="105.547" height="7.434"/>
				<rect x="579.48" y="90.886" clip-path="url(#SVGID_10_)" fill="#D3C2AF" width="105.547" height="8.98"/>
				<rect x="579.48" y="81.91" clip-path="url(#SVGID_10_)" fill="#E7D4BE" width="105.547" height="8.977"/>
				<rect x="579.48" y="72.929" clip-path="url(#SVGID_10_)" fill="#F6E1C9" width="105.547" height="8.98"/>
				<rect x="579.48" y="64.039" clip-path="url(#SVGID_10_)" fill="#F6E1C9" width="105.547" height="8.891"/>
				<rect x="579.48" y="55.152" clip-path="url(#SVGID_10_)" fill="#DDD2C5" width="105.547" height="8.887"/>
				<rect x="579.48" y="50.3" clip-path="url(#SVGID_10_)" fill="#DDD2C5" width="105.547" height="4.852"/>
				<rect x="579.48" y="45.453" clip-path="url(#SVGID_10_)" fill="#F5EEE2" width="105.547" height="4.848"/>
				<path clip-path="url(#SVGID_10_)" fill="#F5EEE2" d="M685.027,45.453H579.48H685.027z"/>
			</g>
		</g>
	</g>
</g>
</svg>
