<?xml version="1.0" encoding="utf-8"?>
<!-- Generator: Adobe Illustrator 16.0.0, SVG Export Plug-In . SVG Version: 6.00 Build 0)  -->
<!DOCTYPE svg PUBLIC "-//W3C//DTD SVG 1.1//EN" "http://www.w3.org/Graphics/SVG/1.1/DTD/svg11.dtd">
<svg version="1.1" id="Calque_2" xmlns="http://www.w3.org/2000/svg" xmlns:xlink="http://www.w3.org/1999/xlink" x="0px" y="0px"
	 width="100px" height="100px" viewBox="0 0 100 100" enable-background="new 0 0 100 100" xml:space="preserve">
<linearGradient id="SVGID_1_" gradientUnits="userSpaceOnUse" x1="49.0757" y1="20.7959" x2="49.0757" y2="14.998">
	<stop  offset="0.15" style="stop-color:#BDBDBD"/>
	<stop  offset="1" style="stop-color:#DEDEDE"/>
</linearGradient>
<path fill="url(#SVGID_1_)" d="M49.075,14.998c-12.095,0-14.573,5.798-14.573,5.798h29.146
	C63.648,20.796,61.17,14.998,49.075,14.998z"/>
<linearGradient id="SVGID_2_" gradientUnits="userSpaceOnUse" x1="50.064" y1="27.9219" x2="50.064" y2="21.6621">
	<stop  offset="0.15" style="stop-color:#BDBDBD"/>
	<stop  offset="1" style="stop-color:#DEDEDE"/>
</linearGradient>
<path fill="url(#SVGID_2_)" d="M78.994,23.437h-6.501c-0.664-0.559-1.752-0.941-1.752-1.775c-13.636,0-27.271,0-40.906,0
	c0,0.833-1.088,1.216-1.752,1.775h-6.95v4.485h57.86L78.994,23.437L78.994,23.437z"/>
<linearGradient id="SVGID_3_" gradientUnits="userSpaceOnUse" x1="50.064" y1="35.9199" x2="50.064" y2="28.7441">
	<stop  offset="0.15" style="stop-color:#BDBDBD"/>
	<stop  offset="1" style="stop-color:#DEDEDE"/>
</linearGradient>
<rect x="9.696" y="28.744" fill="url(#SVGID_3_)" width="80.736" height="7.176"/>
<linearGradient id="SVGID_4_" gradientUnits="userSpaceOnUse" x1="14.5864" y1="39.3281" x2="14.5864" y2="37.1748">
	<stop  offset="0.15" style="stop-color:#BDBDBD"/>
	<stop  offset="1" style="stop-color:#DEDEDE"/>
</linearGradient>
<rect x="10.639" y="37.175" fill="url(#SVGID_4_)" width="7.894" height="2.153"/>
<linearGradient id="SVGID_5_" gradientUnits="userSpaceOnUse" x1="14.6753" y1="68.5732" x2="14.6753" y2="39.8677">
	<stop  offset="0.15" style="stop-color:#BDBDBD"/>
	<stop  offset="1" style="stop-color:#DEDEDE"/>
</linearGradient>
<rect x="11.805" y="39.867" fill="url(#SVGID_5_)" width="5.741" height="28.706"/>
<linearGradient id="SVGID_6_" gradientUnits="userSpaceOnUse" x1="14.7632" y1="79.2881" x2="14.7632" y2="69.0215">
	<stop  offset="0.15" style="stop-color:#BDBDBD"/>
	<stop  offset="1" style="stop-color:#DEDEDE"/>
</linearGradient>
<rect x="10.88" y="69.021" fill="url(#SVGID_6_)" width="7.766" height="10.267"/>
<linearGradient id="SVGID_7_" gradientUnits="userSpaceOnUse" x1="26.2241" y1="39.3281" x2="26.2241" y2="37.1748">
	<stop  offset="0.15" style="stop-color:#BDBDBD"/>
	<stop  offset="1" style="stop-color:#DEDEDE"/>
</linearGradient>
<rect x="22.277" y="37.175" fill="url(#SVGID_7_)" width="7.894" height="2.153"/>
<linearGradient id="SVGID_8_" gradientUnits="userSpaceOnUse" x1="26.3145" y1="68.5732" x2="26.3145" y2="39.8677">
	<stop  offset="0.15" style="stop-color:#BDBDBD"/>
	<stop  offset="1" style="stop-color:#DEDEDE"/>
</linearGradient>
<rect x="23.444" y="39.867" fill="url(#SVGID_8_)" width="5.741" height="28.706"/>
<linearGradient id="SVGID_9_" gradientUnits="userSpaceOnUse" x1="26.4019" y1="79.2881" x2="26.4019" y2="69.0215">
	<stop  offset="0.15" style="stop-color:#BDBDBD"/>
	<stop  offset="1" style="stop-color:#DEDEDE"/>
</linearGradient>
<rect x="22.519" y="69.021" fill="url(#SVGID_9_)" width="7.766" height="10.267"/>
<linearGradient id="SVGID_10_" gradientUnits="userSpaceOnUse" x1="38" y1="39.3281" x2="38" y2="37.1748">
	<stop  offset="0.15" style="stop-color:#BDBDBD"/>
	<stop  offset="1" style="stop-color:#DEDEDE"/>
</linearGradient>
<rect x="34.053" y="37.175" fill="url(#SVGID_10_)" width="7.894" height="2.153"/>
<linearGradient id="SVGID_11_" gradientUnits="userSpaceOnUse" x1="38.0894" y1="68.5732" x2="38.0894" y2="39.8677">
	<stop  offset="0.15" style="stop-color:#BDBDBD"/>
	<stop  offset="1" style="stop-color:#DEDEDE"/>
</linearGradient>
<rect x="35.219" y="39.867" fill="url(#SVGID_11_)" width="5.741" height="28.706"/>
<linearGradient id="SVGID_12_" gradientUnits="userSpaceOnUse" x1="38.1772" y1="79.2881" x2="38.1772" y2="69.0215">
	<stop  offset="0.15" style="stop-color:#BDBDBD"/>
	<stop  offset="1" style="stop-color:#DEDEDE"/>
</linearGradient>
<rect x="34.294" y="69.021" fill="url(#SVGID_12_)" width="7.766" height="10.267"/>
<linearGradient id="SVGID_13_" gradientUnits="userSpaceOnUse" x1="49.6392" y1="39.3281" x2="49.6392" y2="37.1748">
	<stop  offset="0.15" style="stop-color:#BDBDBD"/>
	<stop  offset="1" style="stop-color:#DEDEDE"/>
</linearGradient>
<rect x="45.692" y="37.175" fill="url(#SVGID_13_)" width="7.894" height="2.153"/>
<linearGradient id="SVGID_14_" gradientUnits="userSpaceOnUse" x1="49.729" y1="68.5732" x2="49.729" y2="39.8677">
	<stop  offset="0.15" style="stop-color:#BDBDBD"/>
	<stop  offset="1" style="stop-color:#DEDEDE"/>
</linearGradient>
<rect x="46.858" y="39.867" fill="url(#SVGID_14_)" width="5.742" height="28.706"/>
<linearGradient id="SVGID_15_" gradientUnits="userSpaceOnUse" x1="49.8164" y1="79.2881" x2="49.8164" y2="69.0215">
	<stop  offset="0.15" style="stop-color:#BDBDBD"/>
	<stop  offset="1" style="stop-color:#DEDEDE"/>
</linearGradient>
<rect x="45.933" y="69.021" fill="url(#SVGID_15_)" width="7.766" height="10.267"/>
<linearGradient id="SVGID_16_" gradientUnits="userSpaceOnUse" x1="61.6816" y1="39.3281" x2="61.6816" y2="37.1748">
	<stop  offset="0.15" style="stop-color:#BDBDBD"/>
	<stop  offset="1" style="stop-color:#DEDEDE"/>
</linearGradient>
<rect x="57.734" y="37.175" fill="url(#SVGID_16_)" width="7.895" height="2.153"/>
<linearGradient id="SVGID_17_" gradientUnits="userSpaceOnUse" x1="61.7715" y1="68.5732" x2="61.7715" y2="39.8677">
	<stop  offset="0.15" style="stop-color:#BDBDBD"/>
	<stop  offset="1" style="stop-color:#DEDEDE"/>
</linearGradient>
<rect x="58.9" y="39.867" fill="url(#SVGID_17_)" width="5.742" height="28.706"/>
<linearGradient id="SVGID_18_" gradientUnits="userSpaceOnUse" x1="61.8594" y1="79.2881" x2="61.8594" y2="69.0215">
	<stop  offset="0.15" style="stop-color:#BDBDBD"/>
	<stop  offset="1" style="stop-color:#DEDEDE"/>
</linearGradient>
<rect x="57.977" y="69.021" fill="url(#SVGID_18_)" width="7.766" height="10.267"/>
<linearGradient id="SVGID_19_" gradientUnits="userSpaceOnUse" x1="73.3203" y1="39.3281" x2="73.3203" y2="37.1748">
	<stop  offset="0.15" style="stop-color:#BDBDBD"/>
	<stop  offset="1" style="stop-color:#DEDEDE"/>
</linearGradient>
<rect x="69.374" y="37.175" fill="url(#SVGID_19_)" width="7.894" height="2.153"/>
<linearGradient id="SVGID_20_" gradientUnits="userSpaceOnUse" x1="73.4102" y1="68.5732" x2="73.4102" y2="39.8677">
	<stop  offset="0.15" style="stop-color:#BDBDBD"/>
	<stop  offset="1" style="stop-color:#DEDEDE"/>
</linearGradient>
<rect x="70.54" y="39.867" fill="url(#SVGID_20_)" width="5.741" height="28.706"/>
<linearGradient id="SVGID_21_" gradientUnits="userSpaceOnUse" x1="73.498" y1="79.2881" x2="73.498" y2="69.0215">
	<stop  offset="0.15" style="stop-color:#BDBDBD"/>
	<stop  offset="1" style="stop-color:#DEDEDE"/>
</linearGradient>
<rect x="69.615" y="69.021" fill="url(#SVGID_21_)" width="7.766" height="10.267"/>
<linearGradient id="SVGID_22_" gradientUnits="userSpaceOnUse" x1="85.0957" y1="39.3281" x2="85.0957" y2="37.1748">
	<stop  offset="0.15" style="stop-color:#BDBDBD"/>
	<stop  offset="1" style="stop-color:#DEDEDE"/>
</linearGradient>
<rect x="81.148" y="37.175" fill="url(#SVGID_22_)" width="7.895" height="2.153"/>
<linearGradient id="SVGID_23_" gradientUnits="userSpaceOnUse" x1="85.1855" y1="68.5732" x2="85.1855" y2="39.8677">
	<stop  offset="0.15" style="stop-color:#BDBDBD"/>
	<stop  offset="1" style="stop-color:#DEDEDE"/>
</linearGradient>
<rect x="82.314" y="39.867" fill="url(#SVGID_23_)" width="5.742" height="28.706"/>
<linearGradient id="SVGID_24_" gradientUnits="userSpaceOnUse" x1="85.2734" y1="79.2881" x2="85.2734" y2="69.0215">
	<stop  offset="0.15" style="stop-color:#BDBDBD"/>
	<stop  offset="1" style="stop-color:#DEDEDE"/>
</linearGradient>
<rect x="81.391" y="69.021" fill="url(#SVGID_24_)" width="7.767" height="10.267"/>
<linearGradient id="SVGID_25_" gradientUnits="userSpaceOnUse" x1="50.3335" y1="83.1191" x2="50.3335" y2="81.1445">
	<stop  offset="0.15" style="stop-color:#BDBDBD"/>
	<stop  offset="1" style="stop-color:#DEDEDE"/>
</linearGradient>
<rect x="9.293" y="81.145" fill="url(#SVGID_25_)" width="82.081" height="1.975"/>
<linearGradient id="SVGID_26_" gradientUnits="userSpaceOnUse" x1="50.3335" y1="85.8105" x2="50.3335" y2="83.8359">
	<stop  offset="0.15" style="stop-color:#BDBDBD"/>
	<stop  offset="1" style="stop-color:#DEDEDE"/>
</linearGradient>
<rect x="7.274" y="83.836" fill="url(#SVGID_26_)" width="86.119" height="1.975"/>
<linearGradient id="SVGID_27_" gradientUnits="userSpaceOnUse" x1="50.3335" y1="88.502" x2="50.3335" y2="86.5273">
	<stop  offset="0.15" style="stop-color:#BDBDBD"/>
	<stop  offset="1" style="stop-color:#DEDEDE"/>
</linearGradient>
<rect x="4.583" y="86.527" fill="url(#SVGID_27_)" width="91.5" height="1.975"/>
</svg>
