<?xml version="1.0" encoding="utf-8"?>
<!-- Generator: Adobe Illustrator 19.0.0, SVG Export Plug-In . SVG Version: 6.00 Build 0)  -->
<svg version="1.1" id="Слой_1" xmlns="http://www.w3.org/2000/svg" xmlns:xlink="http://www.w3.org/1999/xlink" x="0px" y="0px"
	 viewBox="-37 117.8 21 22.2" style="enable-background:new -37 117.8 21 22.2;" xml:space="preserve">
<style type="text/css">
	.st0{fill:#C6C6C6;}
</style>
<g>
	<path class="st0" d="M-23.4,127.9c-0.2-0.4-0.5-0.9-0.8-1.2c-0.4-0.4-0.8-0.6-1.2-0.8l-0.6,0.6l-0.4,0.4l-0.4,0.4
		c-0.1,0.1-0.1,0.2-0.2,0.2c0.5,0,1,0.2,1.4,0.6c0.4,0.4,0.6,0.9,0.6,1.4c0,0.3,0,0.6-0.1,0.8c-0.1,0.3-0.3,0.6-0.5,0.8c0,0,0,0,0,0
		l-0.5,0.5l-0.6,0.6l-0.6,0.6l-1.5,1.5c-0.4,0.4-1,0.6-1.5,0.6c-0.6,0-1.1-0.2-1.5-0.6c-0.4-0.4-0.6-1-0.6-1.5s0.2-1.1,0.6-1.5
		l1.5-1.5c-0.1-0.3-0.2-0.5-0.2-0.8c0-0.2,0-0.4,0-0.6c0-0.4,0-0.8,0.1-1.2l-2.8,2.8c-1.6,1.6-1.6,4.2,0,5.8
		c0.8,0.8,1.9,1.2,2.9,1.2c1.1,0,2.1-0.4,2.9-1.2l2.8-2.8l0.4-0.4c0.2-0.2,0.4-0.5,0.6-0.8c0.3-0.4,0.4-0.9,0.5-1.4
		c0-0.2,0.1-0.5,0.1-0.8c0-0.3,0-0.6-0.1-0.9C-23.2,128.4-23.3,128.1-23.4,127.9z"/>
	<path class="st0" d="M-19.7,122.1c-0.8-0.8-1.9-1.2-2.9-1.2c-1.1,0-2.1,0.4-2.9,1.2l-2.8,2.8l-0.4,0.4c-0.2,0.2-0.4,0.5-0.6,0.8
		c-0.3,0.4-0.4,0.9-0.5,1.4c0,0.2-0.1,0.5-0.1,0.8c0,0.3,0,0.6,0.1,0.9c0.1,0.3,0.1,0.5,0.3,0.8c0.2,0.4,0.5,0.9,0.8,1.2
		c0.4,0.4,0.8,0.6,1.2,0.8l0.6-0.6l0.4-0.4l0.4-0.4c0.1-0.1,0.1-0.2,0.2-0.2c-0.5,0-1-0.2-1.4-0.6c-0.4-0.4-0.6-0.9-0.6-1.4
		c0-0.3,0-0.6,0.1-0.8c0.1-0.3,0.3-0.6,0.5-0.8c0,0,0,0,0,0l0.5-0.5l0.6-0.6l0.6-0.6l1.5-1.5c0.4-0.4,1-0.6,1.5-0.6
		c0.6,0,1.1,0.2,1.5,0.6c0.9,0.9,0.9,2.2,0,3.1l-1.5,1.5c0.1,0.3,0.2,0.5,0.2,0.8c0,0.2,0,0.4,0,0.6c0,0.4,0,0.8-0.1,1.2l2.8-2.8
		C-18.1,126.3-18.1,123.7-19.7,122.1z"/>
</g>
</svg>
