<?xml version="1.0" encoding="utf-8"?>
<!-- Generator: Adobe Illustrator 16.0.0, SVG Export Plug-In . SVG Version: 6.00 Build 0)  -->
<!DOCTYPE svg PUBLIC "-//W3C//DTD SVG 1.1//EN" "http://www.w3.org/Graphics/SVG/1.1/DTD/svg11.dtd">
<svg version="1.1" id="Your_Icon" xmlns="http://www.w3.org/2000/svg" xmlns:xlink="http://www.w3.org/1999/xlink" x="0px" y="0px"
	 width="123.75px" height="123.75px" viewBox="-11.75 -12 123.75 123.75" enable-background="new -11.75 -12 123.75 123.75"
	 xml:space="preserve">
<g>
	<linearGradient id="SVGID_1_" gradientUnits="userSpaceOnUse" x1="49.9995" y1="-1" x2="49.9995" y2="29">
		<stop  offset="0" style="stop-color:#E6E6E6"/>
		<stop  offset="1" style="stop-color:#BFBFBF"/>
	</linearGradient>
	<circle fill="none" stroke="url(#SVGID_1_)" stroke-width="4" stroke-miterlimit="10" cx="50" cy="14" r="13"/>
	<linearGradient id="SVGID_2_" gradientUnits="userSpaceOnUse" x1="48.8335" y1="29" x2="48.8335" y2="105.0142">
		<stop  offset="0" style="stop-color:#E6E6E6"/>
		<stop  offset="1" style="stop-color:#BFBFBF"/>
	</linearGradient>
	<path fill="none" stroke="url(#SVGID_2_)" stroke-width="4" stroke-miterlimit="10" d="M50,94.757l34.366,7.992
		c4.132,0.562,8.081-1.207,9.383-5.171s-0.412-8.292-4.073-10.29L64.445,75l1.039-20.543l4.578,9.814
		c0.321,0.685,0.758,1.31,1.293,1.843L86.83,85.5c1.267,1.268,2.924,1.9,4.584,1.9c1.662,0,3.319-0.634,4.586-1.9
		c2.533-2.531,2.533-6.639,0-9.17L82.606,59.363L72.561,38.819C70.178,34.015,66.713,31,61.529,31H38.471
		c-5.184,0-8.647,3.015-11.031,7.819L17.005,59.505L1.667,76.312c-2.533,2.531-2.533,6.654,0,9.188
		c1.267,1.268,2.926,1.909,4.586,1.909s3.319-0.63,4.586-1.896l17.807-19.4c0.534-0.533,0.971-1.157,1.291-1.842l4.58-9.814
		L35.556,75L10.14,86.775c-3.663,1.998-5.377,6.326-4.075,10.29c1.302,3.964,5.25,6.431,9.383,5.869L50,94.757z"/>
</g>
</svg>
