<?xml version="1.0" encoding="utf-8"?>
<!-- Generator: Adobe Illustrator 16.0.0, SVG Export Plug-In . SVG Version: 6.00 Build 0)  -->
<!DOCTYPE svg PUBLIC "-//W3C//DTD SVG 1.1//EN" "http://www.w3.org/Graphics/SVG/1.1/DTD/svg11.dtd">
<svg version="1.1" id="Layer_1" xmlns="http://www.w3.org/2000/svg" xmlns:xlink="http://www.w3.org/1999/xlink" x="0px" y="0px"
	 width="100px" height="100px" viewBox="0 0 100 100" enable-background="new 0 0 100 100" xml:space="preserve">

<g id="Layer_3">
	<g>
		<path fill="#3C7C57" d="M51.332,37.75c-2.63,0-5.21-1.07-7.07-2.931c-1.86-1.859-2.93-4.439-2.93-7.069
			c0-2.63,1.07-5.21,2.93-7.07c1.86-1.86,4.44-2.93,7.07-2.93c2.63,0,5.21,1.07,7.069,2.93c1.86,1.86,2.931,4.44,2.931,7.07
			c0,2.63-1.07,5.21-2.931,7.069C56.542,36.679,53.962,37.75,51.332,37.75z"/>
	</g>
</g>
<g id="Layer_3_1_">
	<g>
		<path fill="#3C7C57" d="M39.499,56.253c-2.63,0-5.21-1.07-7.07-2.931c-1.86-1.859-2.93-4.439-2.93-7.069s1.07-5.21,2.93-7.07
			c1.86-1.86,4.44-2.93,7.07-2.93c2.63,0,5.21,1.069,7.07,2.93s2.93,4.44,2.93,7.07s-1.07,5.21-2.93,7.069
			C44.708,55.183,42.128,56.253,39.499,56.253z"/>
	</g>
</g>
<g id="Layer_3_4_">
	<g>
		<path fill="#3C7C57" d="M27.165,76.254c-2.63,0-5.21-1.07-7.07-2.931c-1.86-1.859-2.93-4.439-2.93-7.069s1.07-5.21,2.93-7.07
			c1.86-1.86,4.44-2.93,7.07-2.93c2.63,0,5.21,1.069,7.07,2.93s2.93,4.44,2.93,7.07s-1.07,5.21-2.93,7.069
			C32.375,75.184,29.795,76.254,27.165,76.254z"/>
	</g>
</g>
<g id="Layer_3_2_">
	<g>
		<path fill="#3C7C57" d="M62.162,56.254c-2.63,0-5.2-1.07-7.07-2.93c-1.86-1.861-2.93-4.441-2.93-7.071
			c0-2.64,1.069-5.21,2.93-7.07c1.87-1.87,4.44-2.93,7.07-2.93c2.64,0,5.21,1.06,7.069,2.93c1.87,1.86,2.931,4.44,2.931,7.07
			s-1.061,5.209-2.931,7.071C67.372,55.184,64.802,56.254,62.162,56.254z"/>
	</g>
</g>
<g id="Layer_3_5_">
	<g>
		<path fill="#3C7C57" d="M74.496,76.254c-2.63,0-5.2-1.07-7.07-2.93c-1.86-1.86-2.93-4.44-2.93-7.07c0-2.64,1.069-5.21,2.93-7.07
			c1.87-1.87,4.44-2.93,7.07-2.93c2.64,0,5.21,1.06,7.069,2.93c1.87,1.86,2.931,4.44,2.931,7.07s-1.061,5.21-2.931,7.07
			C79.706,75.184,77.136,76.254,74.496,76.254z"/>
	</g>
</g>
<g id="Layer_3_3_">
	<g>
		<path fill="#3C7C57" d="M51.332,76.254c-2.63,0-5.2-1.07-7.07-2.93c-1.86-1.861-2.93-4.441-2.93-7.07
			c0-2.641,1.069-5.211,2.93-7.07c1.87-1.871,4.44-2.93,7.07-2.93c2.64,0,5.21,1.059,7.069,2.93c1.87,1.859,2.931,4.439,2.931,7.07
			c0,2.629-1.061,5.209-2.931,7.07C56.542,75.184,53.972,76.254,51.332,76.254z"/>
	</g>
</g>
</svg>
