<?xml version="1.0" encoding="iso-8859-1"?>
<!-- Generator: Adobe Illustrator 19.2.0, SVG Export Plug-In . SVG Version: 6.00 Build 0)  -->
<svg version="1.1" xmlns="http://www.w3.org/2000/svg" xmlns:xlink="http://www.w3.org/1999/xlink" x="0px" y="0px"
	 viewBox="0 0 85.039 85.042" style="enable-background:new 0 0 85.039 85.042;" xml:space="preserve">
<g id="Layer_1">
	<g id="able">
	</g>
	<g id="project">
	</g>
	<g id="object">
	</g>
	<g id="event">
	</g>
	<g id="persona">
	</g>
	<g id="face">
	</g>
	<g id="doer">
	</g>
	<g id="author">
	</g>
	<g id="designer">
	</g>
	<g id="idea">
	</g>
	<g id="aim">
	</g>
	<g id="gist">
	</g>
	<g id="time">
	</g>
	<g id="place">
	</g>
	<g id="gift">
	</g>
	<g id="thing">
	</g>
	<g id="result">
	</g>
	<g id="purchase">
	</g>
	<g id="task">
	</g>
	<g id="tool">
	</g>
	<g id="class">
	</g>
	<g id="course">
	</g>
	<g id="question">
	</g>
	<g id="statement">
	</g>
	<g id="material">
	</g>
	<g id="skill">
		<path style="fill:none;stroke:#FFFFFF;stroke-width:6.5;stroke-linecap:round;stroke-linejoin:round;stroke-miterlimit:10;" d="
			M50.934,25.671c0.007-3.167-0.67-11.085,8.384-11.178c6.975-0.072,8.149,5.461,8.14,12.068c-0.005,3.36-5.065,15.96-24.911,15.88
			c-21.058-0.085-25.151,9.403-25.151,18.461c0,3.018,2.349,9.487,8.39,9.487c9.051,0,8.267-9.336,8.267-9.336
			c0-3.021,0-29.735,0-36.222s-0.152-10.41-8.458-10.41c-6.489,0-8.199,7.481-8.144,12.118c0.114,9.446,16.602,15.982,25.095,15.902
			c8.382-0.079,24.911,5.624,24.911,17.432c0,4.658-1.815,10.747-7.576,10.747c-5.126,0-8.909-5.71-8.909-12.743
			C50.972,49.55,50.893,45.268,50.934,25.671z"/>
	</g>
	<g id="competence">
	</g>
	<g id="present">
	</g>
	<g id="Design_2">
	</g>
</g>
<g id="Layer_2">
</g>
</svg>
