<?xml version="1.0" encoding="utf-8"?>
<!-- Generator: Adobe Illustrator 16.0.0, SVG Export Plug-In . SVG Version: 6.00 Build 0)  -->
<!DOCTYPE svg PUBLIC "-//W3C//DTD SVG 1.1//EN" "http://www.w3.org/Graphics/SVG/1.1/DTD/svg11.dtd">
<svg version="1.1" xmlns="http://www.w3.org/2000/svg" xmlns:xlink="http://www.w3.org/1999/xlink" x="0px" y="0px" width="100px"
	 height="100px" viewBox="0 0 100 100" enable-background="new 0 0 100 100" xml:space="preserve">


	<path fill="none" stroke="#fff" stroke-width="7" stroke-linecap="round" stroke-miterlimit="10" d="M15.5,50
		c0,0,2.25-31.297,15.75-31.25c10.125,0.036,9.25,11.563,9.25,11.563c0,7.25,0,37.125,0,40.5c0,0,0.875,10.438-9.25,10.438
		c-6.75,0-9.375-6-9.375-9.375C21.875,61.75,26.451,50,50,50c28.201,0,28.125-8.625,28.125-18.75c0,0,0-12.5-9.375-12.5
		c-10.125,0-9.375,8.957-9.375,12.5c0,3.542,0,37.625,0,40.625c0,0,0,9.375,9.375,9.375c15.625,0,15.5-31.25,15.5-31.25"/>

</svg>
