<?xml version="1.0" encoding="utf-8"?>
<!-- Generator: Adobe Illustrator 16.0.0, SVG Export Plug-In . SVG Version: 6.00 Build 0)  -->
<!DOCTYPE svg PUBLIC "-//W3C//DTD SVG 1.1//EN" "http://www.w3.org/Graphics/SVG/1.1/DTD/svg11.dtd">
<svg version="1.1" id="Layer_1" xmlns="http://www.w3.org/2000/svg" xmlns:xlink="http://www.w3.org/1999/xlink" x="0px" y="0px"
	 width="283.46px" height="283.46px" viewBox="0 0 283.46 283.46" enable-background="new 0 0 283.46 283.46" xml:space="preserve">
<g id="Layer_1_1_">
</g>
<g id="Layer_2">
	<path display="none" fill="none" stroke="#7F3F98" stroke-width="14" stroke-linecap="round" stroke-miterlimit="10" d="
		M250.536,63.002c-36,0-70.744,81.001-36,81.001c34.743,0,18.538-90.001-18-90.001c-36.535,0-126,180-54,180
		c72,0-6.499-180.131-45-180c-38.15,0.131-62.183,90.001-27,90.001c42.817,0-1.61-81.001-34.535-81.001"/>
	<path fill="none" stroke="#F7941E" stroke-width="14" stroke-linecap="round" stroke-miterlimit="10" d="M232.536,144.003
		c0,0,0,81.124-36,80.999c-27-0.095-27-27-27-27c0-19.333,0-99,0-108c0,0,0-27,27-27c18,0,18,18,18,27
		c0,27-9.839,55.253-72.637,55.253c-75.203,0-71.363,25.747-71.363,52.747c0,0,0,27,18,27c27,0,27-17.553,27-27c0-9.445,0-100,0-108
		c0,0,0-27.094-27-27c-36,0.125-36,81.001-36,81.001"/>
</g>
</svg>
